HIERARCHY
ROOT root
{
	OFFSET	0	13.1	24.9
	CHANNELS 6  Xposition Yposition Zposition Xrotation Yrotation Zrotation
	JOINT spine_1
	{
		OFFSET	0	9.99999	0
		CHANNELS 3  Xrotation Yrotation Zrotation
		JOINT spine_2
		{
			OFFSET	0	112	-10
			CHANNELS 3  Xrotation Yrotation Zrotation
			JOINT spine_3
			{
				OFFSET	0	206.5	19.3
				CHANNELS 3  Xrotation Yrotation Zrotation
				JOINT spine_4
				{
					OFFSET	0	110.4	14.6
					CHANNELS 3  Xrotation Yrotation Zrotation
					JOINT neck_1
					{
						OFFSET	0	71.8	-50.3
						CHANNELS 3  Xrotation Yrotation Zrotation
						JOINT neck_2
						{
							OFFSET	0	86.2	-25.8
							CHANNELS 3  Xrotation Yrotation Zrotation
							JOINT head_ee
							{
								OFFSET	0	179.8	-8.7
								CHANNELS 3  Xrotation Yrotation Zrotation
								End Site
								{
									OFFSET	1	0	0
								}
							}
						}
					}
					JOINT left_clavicle
					{
						OFFSET	-43.2	22.4	-70.8
						CHANNELS 3  Xrotation Yrotation Zrotation
						JOINT left_shoulder
						{
							OFFSET	-93.9	-5.79999	48.7
							CHANNELS 3  Xrotation Yrotation Zrotation
							JOINT left_elbow
							{
								OFFSET	-291.4	-30.8	15.2
								CHANNELS 3  Xrotation Yrotation Zrotation
								JOINT left_lowarm_twist
								{
									OFFSET	-110.7	-3.89999	13.6
									CHANNELS 3  Xrotation Yrotation Zrotation
									JOINT left_hand
									{
										OFFSET	-110.7	-3.89999	13.6
										CHANNELS 3  Xrotation Yrotation Zrotation
										JOINT left_ee
										{
											OFFSET	-80.8	-5.10001	12.1
											CHANNELS 3  Xrotation Yrotation Zrotation
											End Site
											{
												OFFSET	1	0	0
											}
										}
									}
								}
							}
						}
					}
					JOINT right_clavicle
					{
						OFFSET	43.2	22.4	-70.8
						CHANNELS 3  Xrotation Yrotation Zrotation
						JOINT right_shoulder
						{
							OFFSET	93.9	-5.79999	48.7
							CHANNELS 3  Xrotation Yrotation Zrotation
							JOINT right_elbow
							{
								OFFSET	291.4	-30.8	15.2
								CHANNELS 3  Xrotation Yrotation Zrotation
								JOINT right_lowarm_twist
								{
									OFFSET	110.7	-3.89999	13.6
									CHANNELS 3  Xrotation Yrotation Zrotation
									JOINT right_hand
									{
										OFFSET	110.7	-3.89999	13.6
										CHANNELS 3  Xrotation Yrotation Zrotation
										JOINT right_ee
										{
											OFFSET	80.8	-5.10001	12.1
											CHANNELS 3  Xrotation Yrotation Zrotation
											End Site
											{
												OFFSET	1	0	0
											}
										}
									}
								}
							}
						}
					}
				}
			}
		}
	}
	JOINT left_hip
	{
		OFFSET	-82.8	-127.5	0.300001
		CHANNELS 3  Xrotation Yrotation Zrotation
		JOINT left_knee
		{
			OFFSET	-28.2	-396.7	2.2
			CHANNELS 3  Xrotation Yrotation Zrotation
			JOINT left_ankle
			{
				OFFSET	-11.7	-411.3	35.4
				CHANNELS 3  Xrotation Yrotation Zrotation
				JOINT left_toes
				{
					OFFSET	0	-60	-88.6
					CHANNELS 3  Xrotation Yrotation Zrotation
					JOINT left_foot_ee
					{
						OFFSET	-22.5	-16.5	-42.2
						CHANNELS 3  Xrotation Yrotation Zrotation
						End Site
						{
							OFFSET	1	0	0
						}
					}
				}
			}
		}
	}
	JOINT right_hip
	{
		OFFSET	82.8	-127.5	0.300001
		CHANNELS 3  Xrotation Yrotation Zrotation
		JOINT right_knee
		{
			OFFSET	28.2	-396.7	2.2
			CHANNELS 3  Xrotation Yrotation Zrotation
			JOINT right_ankle
			{
				OFFSET	11.7	-411.3	35.4
				CHANNELS 3  Xrotation Yrotation Zrotation
				JOINT right_toes
				{
					OFFSET	0	-60	-88.6
					CHANNELS 3  Xrotation Yrotation Zrotation
					JOINT right_foot_ee
					{
						OFFSET	22.5	-16.5	-42.2
						CHANNELS 3  Xrotation Yrotation Zrotation
						End Site
						{
							OFFSET	1	0	0
						}
					}
				}
			}
		}
	}
}
MOTION
Frames: 16
Frame Time: 0.02
2876.31358849 705.567 -1539.24894849 -43.8076919953 82.4176258689 44.7924746323 1.45056 0.0519878 0.648662 1.4508 0.0106072 0.650656 1.45094 -0.110182 0.641347 1.45036 -0.00751297 0.650699 -15.6985 6.15881 1.84862 -15.7966 10.7235 3.86291 -0.0 0.0 -0.0 -7.94874 24.0028 -8.1358 -13.4401 -31.9602 89.1553 3.87634 -62.4735 2.35156 -73.4316 -6.98445 5.31985 3.72368 -4.55819 23.8396 -0.0 0.0 -0.0 10.3798 7.45697 -20.6705 -20.8268 -1.91505 -61.7551 0.910178 24.2691 -0.195704 80.4615 3.89186 8.63557 0.234465 -29.1424 -12.6827 0.0 0.0 0.0 5.06107 0.0329999 0.461731 5.90711 -0.28792 -0.860089 20.505 13.7444 -2.81205 -17.7534 0.0 0.0 -0.0 0.0 -0.0 25.7276 3.75764 0.799989 -40.6809 0.51065 -6.09332 14.4578 -21.6341 2.08364 -39.7249 0.0 0.0 0.0 0.0 0.0 
2875.21193621 705.567 -1541.82661846 -41.3737573637 82.0566246013 42.3360471192 1.45056 0.0519878 0.648662 1.4508 0.0106072 0.650656 1.45094 -0.110182 0.641347 1.45036 -0.00751297 0.650699 -15.6985 6.15881 1.84862 -15.7966 10.7235 3.86291 -0.0 0.0 -0.0 -7.94874 24.0028 -8.1358 -13.4401 -31.9602 89.1553 3.87634 -62.4735 2.35156 -73.4316 -6.98445 5.31985 3.72368 -4.55819 23.8396 -0.0 0.0 -0.0 10.3798 7.45697 -20.6705 -20.8268 -1.91505 -61.7551 0.910178 24.2691 -0.195704 80.4615 3.89186 8.63557 0.234465 -29.1424 -12.6827 0.0 0.0 0.0 5.06107 0.0329999 0.461731 5.90711 -0.28792 -0.860089 20.505 13.7444 -2.81205 -17.7534 0.0 0.0 -0.0 0.0 -0.0 25.7276 3.75764 0.799989 -40.6809 0.51065 -6.09332 14.4578 -21.6341 2.08364 -39.7249 0.0 0.0 0.0 0.0 0.0 
2877.36707409 702.839 -1517.03740662 -73.6740805549 84.0506814665 74.7533959493 1.28301 0.0847045 0.749512 1.28332 0.0368408 0.753383 1.28385 -0.105623 0.746852 1.28307 0.0136503 0.75416 -14.5017 5.56887 1.76651 -14.5665 9.57492 3.47508 -0.0 0.0 -0.0 -8.91125 24.2849 -9.40116 -15.9477 -33.7118 85.0244 5.60056 -70.1499 3.93407 -71.5171 -6.73976 5.31329 3.22244 -2.98544 20.8635 -0.0 0.0 -0.0 10.3527 7.18652 -20.6097 -19.8503 -6.98457 -61.5726 0.851749 22.8762 -0.172335 81.2984 3.98906 8.68126 -0.136576 -28.9781 -10.5875 0.0 0.0 0.0 5.1945 -0.494215 0.613379 6.29209 -0.30975 -0.915076 21.3547 12.7791 -2.91196 -18.3997 0.0 0.0 -0.0 0.0 -0.0 26.9837 1.25149 1.98467 -37.8784 0.337338 -5.69897 17.1927 -14.5835 2.39579 -40.2066 0.0 0.0 0.0 0.0 0.0 
2870.61584007 705.489 -1505.59328049 -95.3165007033 84.3433430322 96.2495727316 1.00519 -0.039932 0.919488 1.00566 -0.0983581 0.915085 1.00414 -0.273155 0.878889 1.00309 -0.130929 0.910995 -13.5437 6.04004 -0.423099 -13.641 11.7689 1.46248 -0.0 0.0 -0.0 -10.6921 23.8115 -12.197 -17.0349 -32.2639 86.1702 13.174 -81.2123 11.3071 -72.6822 -6.88865 5.31826 3.14674 -2.79007 20.401 -0.0 0.0 -0.0 10.1293 5.415 -20.1053 -19.9543 -8.16213 -60.9626 0.688988 18.8451 -0.114341 83.2038 4.21277 8.77995 -0.335271 -28.9422 -9.48895 0.0 0.0 0.0 5.10891 0.309393 1.57487 4.63185 -0.218261 -0.67694 23.9859 12.1547 -3.22659 -18.9058 0.0 0.0 -0.0 0.0 -0.0 25.8318 4.5066 1.32673 -31.0812 -0.00113829 -4.71181 13.9376 -14.9329 1.96862 -40.0461 0.0 0.0 0.0 0.0 0.0 
2860.08826626 700.812 -1503.68534472 -108.340635013 85.1119840733 108.27358212 0.834868 -0.135441 1.3086 0.835795 -0.21843 1.29734 0.830951 -0.46853 1.22935 0.828942 -0.268514 1.2879 -13.5343 5.39238 -0.683891 -13.6133 10.6957 1.01073 -0.0 0.0 -0.0 -12.6036 23.7972 -15.11 -15.7166 -34.8661 86.7711 38.85 -86.7853 36.8763 -73.5867 -7.00428 5.32001 3.01284 -1.9588 19.7869 -0.0 0.0 -0.0 10.0033 4.09418 -19.8098 -20.3243 -9.52766 -61.0258 0.620147 17.0772 -0.0931096 84.419 4.35709 8.83899 -0.826857 -28.8801 -6.7959 0.0 0.0 0.0 2.80577 -1.4396 2.3543 4.53343 -0.213055 -0.662742 26.6545 10.3318 -3.52797 -20.8496 0.0 0.0 -0.0 0.0 -0.0 26.3812 3.54112 1.92073 -26.3532 -0.166384 -4.00522 14.9359 -9.50167 2.08546 -39.6535 0.0 0.0 0.0 0.0 0.0 
2848.78464321 695.554 -1500.70521465 -122.407982295 85.8272374169 121.606235735 0.605903 -0.186397 1.54654 0.607188 -0.284418 1.53155 0.59977 -0.585033 1.44372 0.597032 -0.349711 1.51797 -14.0515 7.09127 -1.80558 -14.2074 14.6275 0.548414 -0.0 0.0 -0.0 -12.6669 22.1142 -16.0866 -18.3196 -34.9268 86.6474 85.1036 -87.9748 83.0889 -74.3585 -7.10292 5.32006 2.89039 -2.09546 18.8586 -0.0 0.0 -0.0 9.84648 2.55079 -19.4368 -20.4883 -10.3216 -60.6328 0.547362 15.171 -0.0728933 85.2481 4.45625 8.87751 -1.36703 -28.974 -3.92492 0.0 0.0 0.0 1.0335 -1.63626 3.17822 2.49023 -0.110529 -0.366098 29.2992 10.2368 -3.82205 -21.0698 0.0 0.0 -0.0 0.0 -0.0 26.1908 4.99817 1.61551 -20.5152 -0.289158 -3.11814 20.9779 -5.05209 2.85289 -40.1064 0.0 0.0 0.0 0.0 0.0 
2841.75239654 695.554 -1515.16370968 -85.8237224747 86.46863874 84.9452072714 0.605903 -0.186397 1.54654 0.607188 -0.284418 1.53155 0.59977 -0.585033 1.44372 0.597032 -0.349711 1.51797 -14.0515 7.09127 -1.80558 -14.2074 14.6275 0.548414 -0.0 0.0 -0.0 -12.6669 22.1142 -16.0866 -18.3196 -34.9268 86.6474 85.1036 -87.9748 83.0889 -74.3585 -7.10292 5.32006 2.89039 -2.09546 18.8586 -0.0 0.0 -0.0 9.84648 2.55079 -19.4368 -20.4883 -10.3216 -60.6328 0.547362 15.171 -0.0728933 85.2481 4.45625 8.87751 -1.36703 -28.974 -3.92492 0.0 0.0 0.0 1.0335 -1.63626 3.17822 2.49023 -0.110529 -0.366098 29.2992 10.2368 -3.82205 -21.0698 0.0 0.0 -0.0 0.0 -0.0 26.1908 4.99817 1.61551 -20.5152 -0.289158 -3.11814 20.9779 -5.05209 2.85289 -40.1064 0.0 0.0 0.0 0.0 0.0 
2828.0263043 694.374 -1521.17389837 -76.3276937038 86.2630676557 75.1390158173 0.466979 -0.132373 1.6978 0.468551 -0.240125 1.68594 0.461815 -0.57639 1.60247 0.458371 -0.316115 1.67336 -15.0246 7.76938 0.139575 -15.2173 14.7776 2.742 -0.0 0.0 -0.0 -12.3668 22.487 -15.4127 -22.124 -36.2842 82.9062 152.036 -85.7032 149.951 -76.1881 -7.33659 5.31481 2.61776 -2.89834 16.6026 -0.0 0.0 -0.0 9.68383 0.119695 -19.009 -20.6849 -11.0879 -60.58 0.527944 14.6564 -0.0678955 85.1382 4.44308 8.87249 -1.89314 -29.1514 -1.18865 0.0 0.0 0.0 -0.977823 -2.51867 3.50081 6.32158 -0.311437 -0.919281 29.6013 8.47086 -3.84834 -21.8246 0.0 0.0 -0.0 0.0 -0.0 26.7422 6.24688 1.57302 -8.77088 -0.260544 -1.31954 20.6149 -2.67857 2.81485 -39.8702 0.0 0.0 0.0 0.0 0.0 
2807.83887298 691.966 -1523.68735013 -62.4407643509 86.2012328866 60.480904133 0.297721 -0.0594022 1.885 0.29968 -0.179208 1.8774 0.294372 -0.560761 1.80067 0.289948 -0.269395 1.8666 -14.9288 9.63288 0.44862 -15.22 18.1554 3.66882 -0.0 0.0 -0.0 -11.9437 21.0675 -15.4358 -26.3509 -36.4351 81.6377 157.373 -84.7677 155.27 -77.4531 -7.49793 5.30678 2.43017 -4.44441 14.6461 -0.0 0.0 -0.0 9.08963 -2.19955 -17.6999 -21.7569 -11.518 -61.0072 0.50508 14.0473 -0.062228 85.2481 4.45625 8.87751 -2.76403 -29.1797 3.45072 0.0 0.0 0.0 -1.97935 -1.17817 4.66706 4.6462 -0.219022 -0.679009 32.2494 8.83328 -4.12914 -21.6273 0.0 0.0 -0.0 0.0 -0.0 24.8809 7.14656 2.05667 -0.267133 -0.0109073 -0.0395432 21.497 -0.805524 2.93152 -37.8585 0.0 0.0 0.0 0.0 0.0 
2801.36340325 691.966 -1541.31751266 -37.0411649504 84.4045747747 35.0015329992 0.297721 -0.0594022 1.885 0.29968 -0.179208 1.8774 0.294372 -0.560761 1.80067 0.289948 -0.269395 1.8666 -14.9288 9.63288 0.44862 -15.22 18.1554 3.66882 -0.0 0.0 -0.0 -11.9437 21.0675 -15.4358 -26.3509 -36.4351 81.6377 157.373 -84.7677 155.27 -77.4531 -7.49793 5.30678 2.43017 -4.44441 14.6461 -0.0 0.0 -0.0 9.08963 -2.19955 -17.6999 -21.7569 -11.518 -61.0072 0.50508 14.0473 -0.062228 85.2481 4.45625 8.87751 -2.76403 -29.1797 3.45072 0.0 0.0 0.0 -1.97935 -1.17817 4.66706 4.6462 -0.219022 -0.679009 32.2494 8.83328 -4.12914 -21.6273 0.0 0.0 -0.0 0.0 -0.0 24.8809 7.14656 2.05667 -0.267133 -0.0109073 -0.0395432 21.497 -0.805524 2.93152 -37.8585 0.0 0.0 0.0 0.0 0.0 
2782.47817006 692.337 -1548.78850444 -18.5605374031 82.4102539138 15.6308053713 0.203716 0.0988596 2.02323 0.205993 -0.0300575 2.02542 0.205798 -0.448173 1.97547 0.200375 -0.130627 2.02143 -15.8889 11.5429 2.56272 -16.2976 20.6494 6.51208 -0.0 0.0 -0.0 -10.7388 20.2769 -13.844 -33.416 -36.3108 78.2984 163.507 -82.9258 161.37 -78.2229 -7.59599 5.30014 2.52665 -7.87527 13.8469 -0.0 0.0 -0.0 8.78692 -5.16673 -16.9506 -22.3576 -10.9146 -60.3692 0.533931 14.8153 -0.0694186 84.4773 4.36405 8.84175 -4.42219 -28.8129 12.6831 0.0 0.0 0.0 -4.08575 -1.4636 5.55133 1.29833 -0.0556368 -0.191459 32.3763 8.72209 -4.14181 -19.4109 0.0 0.0 -0.0 0.0 -0.0 23.3499 7.64988 1.13297 5.04261 0.240251 0.736097 19.1949 -2.06037 2.64095 -36.1234 0.0 0.0 0.0 0.0 0.0 
2747.58954195 689.226 -1556.06286102 -6.66441959555 81.4951413323 2.99496517198 0.0449507 0.250862 2.29123 0.0478654 0.104596 2.30254 0.0534581 -0.379729 2.27343 0.0462456 -0.0160165 2.30486 -15.5524 13.4794 2.1835 -16.1364 24.5524 6.83073 -0.0 0.0 -0.0 -10.416 16.5294 -14.9019 -37.3171 -37.8894 78.6672 162.291 -83.3932 160.162 -78.4204 -7.62112 5.29822 2.60577 -8.69777 14.0356 -0.0 0.0 -0.0 8.32742 -7.50983 -15.9384 -22.8996 -12.3714 -60.6015 0.502439 13.9768 -0.0615887 84.6178 4.38082 8.84836 -5.26225 -27.188 18.6399 0.0 0.0 0.0 -6.8182 -1.62727 6.23306 -1.20202 0.0476239 0.178315 36.1674 9.76508 -4.52321 -16.8641 0.0 0.0 -0.0 0.0 -0.0 23.0313 8.49947 0.860523 9.33063 0.494962 1.34379 17.8559 1.07128 2.48792 -33.0358 0.0 0.0 0.0 0.0 0.0 
2717.51674892 686.869 -1558.73894958 -2.92691584089 80.8093116238 -1.48703506797 -0.0871879 -0.0229511 2.35326 -0.0841235 -0.172607 2.34704 -0.0899803 -0.66598 2.25723 -0.096964 -0.301238 2.33403 -18.787 15.2551 2.74688 -19.8713 27.9251 8.97324 -0.0 0.0 -0.0 -9.24204 12.8391 -14.2499 -41.1709 -39.0114 77.7525 160.104 -84.0893 157.988 -78.388 -7.61699 5.29854 2.71522 -10.1839 14.1338 -0.0 0.0 -0.0 8.60628 -10.4664 -16.2456 -21.0024 -12.6652 -58.8215 0.456364 12.7389 -0.0509433 84.3284 4.34629 8.83469 -6.55854 -26.4816 27.1827 0.0 0.0 0.0 -8.74268 -2.62761 6.96536 -3.25669 0.120322 0.485249 36.5009 10.9881 -4.56342 -15.936 0.0 0.0 -0.0 0.0 -0.0 25.8202 8.79976 -0.51377 8.38533 0.4349 1.21145 11.6098 1.20421 1.66117 -32.5703 0.0 0.0 0.0 0.0 0.0 
2635.14910021 678.756 -1582.31138907 -5.48206500683 76.3951452369 1.10284483597 0.376232 -0.0485057 1.54211 0.377543 -0.146524 1.5359 0.373969 -0.456568 1.47378 0.371005 -0.21811 1.52738 -22.8946 15.282 2.87303 -24.4175 28.1487 10.3208 -0.0 0.0 -0.0 -7.89976 17.2842 -10.3893 -40.1838 -37.0949 79.5273 149.989 -85.9707 147.91 -81.6283 -8.02803 5.25485 3.0346 -10.0807 16.4115 -0.0 0.0 -0.0 8.82288 -12.5106 -16.4533 -19.428 -10.8801 -56.7292 0.444409 12.4157 -0.04834 85.209 4.45157 8.87572 -7.53662 -26.9188 33.2877 0.0 0.0 0.0 -12.5275 1.2205 8.26539 -1.27603 0.0504339 0.189326 40.3838 12.9938 -4.93946 -18.1408 0.0 0.0 -0.0 0.0 -0.0 27.3587 8.9508 -1.30712 4.13103 0.192026 0.604606 8.5271 2.09885 1.23716 -32.8601 0.0 0.0 0.0 0.0 0.0 
2634.25340727 678.756 -1588.08792725 -5.25155925254 75.7875358507 0.865379908221 0.376232 -0.0485057 1.54211 0.377543 -0.146524 1.5359 0.373969 -0.456568 1.47378 0.371005 -0.21811 1.52738 -22.8946 15.282 2.87303 -24.4175 28.1487 10.3208 -0.0 0.0 -0.0 -7.89976 17.2842 -10.3893 -40.1838 -37.0949 79.5273 149.989 -85.9707 147.91 -81.6283 -8.02803 5.25485 3.0346 -10.0807 16.4115 -0.0 0.0 -0.0 8.82288 -12.5106 -16.4533 -19.428 -10.8801 -56.7292 0.444409 12.4157 -0.04834 85.209 4.45157 8.87572 -7.53662 -26.9188 33.2877 0.0 0.0 0.0 -12.5275 1.2205 8.26539 -1.27603 0.0504339 0.189326 40.3838 12.9938 -4.93946 -18.1408 0.0 0.0 -0.0 0.0 -0.0 27.3587 8.9508 -1.30712 4.13103 0.192026 0.604606 8.5271 2.09885 1.23716 -32.8601 0.0 0.0 0.0 0.0 0.0 
2633.4215035 678.756 -1593.85774296 -5.04071112029 75.1813841252 0.647582584879 0.376232 -0.0485057 1.54211 0.377543 -0.146524 1.5359 0.373969 -0.456568 1.47378 0.371005 -0.21811 1.52738 -22.8946 15.282 2.87303 -24.4175 28.1487 10.3208 -0.0 0.0 -0.0 -7.89976 17.2842 -10.3893 -40.1838 -37.0949 79.5273 149.989 -85.9707 147.91 -81.6283 -8.02803 5.25485 3.0346 -10.0807 16.4115 -0.0 0.0 -0.0 8.82288 -12.5106 -16.4533 -19.428 -10.8801 -56.7292 0.444409 12.4157 -0.04834 85.209 4.45157 8.87572 -7.53662 -26.9188 33.2877 0.0 0.0 0.0 -12.5275 1.2205 8.26539 -1.27603 0.0504339 0.189326 40.3838 12.9938 -4.93946 -18.1408 0.0 0.0 -0.0 0.0 -0.0 27.3587 8.9508 -1.30712 4.13103 0.192026 0.604606 8.5271 2.09885 1.23716 -32.8601 0.0 0.0 0.0 0.0 0.0 
